FILE "Learn Arabic with Innovative Language's Proven Language System - Level 5꞉ Advanced Arabic [B072LCK3ZZ].m4b" MP3
TRACK 1 AUDIO
  TITLE "Chapter 1"
  INDEX 01 0:00:00
TRACK 2 AUDIO
  TITLE "Chapter 2"
  INDEX 01 10:48:29
TRACK 3 AUDIO
  TITLE "Chapter 3"
  INDEX 01 14:01:22
TRACK 4 AUDIO
  TITLE "Chapter 4"
  INDEX 01 15:39:32
